<svg xmlns="http://www.w3.org/2000/svg" xmlns:xlink="http://www.w3.org/1999/xlink" width="118" zoomAndPan="magnify" viewBox="0 0 88.5 30.750001" height="41" preserveAspectRatio="xMidYMid meet" version="1.0"><defs><clipPath id="40b81f3fec"><path d="M 40 8 L 56 8 L 56 30.480469 L 40 30.480469 Z M 40 8 " clip-rule="nonzero"/></clipPath><clipPath id="551d5735a0"><path d="M 72 14 L 87.894531 14 L 87.894531 30.480469 L 72 30.480469 Z M 72 14 " clip-rule="nonzero"/></clipPath><clipPath id="b57144bdd2"><path d="M 57 14 L 72 14 L 72 30.480469 L 57 30.480469 Z M 57 14 " clip-rule="nonzero"/></clipPath><clipPath id="60dc2681b1"><path d="M 0.195312 0.0195312 L 40 0.0195312 L 40 30.480469 L 0.195312 30.480469 Z M 0.195312 0.0195312 " clip-rule="nonzero"/></clipPath></defs><g clip-path="url(#40b81f3fec)"><path fill="#cc0a19" d="M 52.675781 8.816406 L 52.675781 16.914062 L 52.476562 16.691406 C 51.804688 15.941406 51.003906 15.386719 50.066406 15.023438 C 49.664062 14.875 49.253906 14.765625 48.835938 14.691406 C 48.414062 14.617188 47.992188 14.585938 47.566406 14.589844 C 47.140625 14.589844 46.714844 14.632812 46.296875 14.714844 C 45.878906 14.796875 45.472656 14.914062 45.074219 15.066406 C 44.675781 15.222656 44.296875 15.410156 43.933594 15.632812 C 43.570312 15.859375 43.230469 16.113281 42.914062 16.398438 C 42.597656 16.683594 42.308594 16.996094 42.050781 17.332031 C 41.789062 17.667969 41.5625 18.027344 41.367188 18.40625 C 40.492188 20.148438 40.207031 21.984375 40.515625 23.910156 C 40.621094 24.789062 40.878906 25.621094 41.28125 26.410156 C 41.6875 27.199219 42.21875 27.894531 42.871094 28.492188 C 43.746094 29.289062 44.753906 29.855469 45.890625 30.1875 C 47.027344 30.519531 48.179688 30.585938 49.347656 30.382812 C 50.378906 30.269531 51.339844 29.949219 52.226562 29.417969 C 53.117188 28.886719 53.851562 28.191406 54.4375 27.339844 C 55.449219 25.855469 55.925781 24.21875 55.875 22.429688 C 55.875 17.984375 55.875 12 55.875 12 Z M 51.621094 25.714844 C 51.203125 26.242188 50.6875 26.644531 50.074219 26.921875 C 49.460938 27.203125 48.816406 27.324219 48.140625 27.289062 C 47.597656 27.304688 47.070312 27.21875 46.558594 27.03125 C 46.046875 26.847656 45.585938 26.578125 45.179688 26.222656 C 44.769531 25.867188 44.4375 25.449219 44.183594 24.96875 C 43.929688 24.492188 43.769531 23.980469 43.707031 23.441406 C 43.542969 22.632812 43.585938 21.832031 43.828125 21.042969 C 44.070312 20.25 44.484375 19.566406 45.074219 18.984375 C 45.332031 18.742188 45.613281 18.53125 45.921875 18.355469 C 46.226562 18.179688 46.550781 18.042969 46.890625 17.941406 C 47.230469 17.84375 47.578125 17.785156 47.933594 17.769531 C 48.285156 17.75 48.636719 17.773438 48.984375 17.839844 C 49.332031 17.90625 49.667969 18.011719 49.992188 18.15625 C 50.3125 18.304688 50.613281 18.484375 50.894531 18.703125 C 51.175781 18.917969 51.425781 19.164062 51.644531 19.441406 C 51.867188 19.71875 52.050781 20.015625 52.203125 20.335938 C 52.410156 20.765625 52.558594 21.21875 52.640625 21.6875 C 52.722656 22.160156 52.738281 22.632812 52.6875 23.105469 C 52.636719 23.582031 52.519531 24.039062 52.339844 24.484375 C 52.15625 24.925781 51.917969 25.335938 51.621094 25.710938 " fill-opacity="1" fill-rule="nonzero"/></g><g clip-path="url(#551d5735a0)"><path fill="#cc0a19" d="M 87.972656 22.605469 C 87.972656 21.972656 87.914062 21.34375 87.792969 20.722656 C 87.617188 19.644531 87.214844 18.65625 86.585938 17.757812 C 85.960938 16.863281 85.171875 16.144531 84.21875 15.601562 C 82.648438 14.707031 80.96875 14.394531 79.183594 14.664062 C 78.554688 14.722656 77.949219 14.863281 77.359375 15.082031 C 76.769531 15.300781 76.21875 15.59375 75.707031 15.957031 C 75.191406 16.320312 74.734375 16.742188 74.332031 17.226562 C 73.933594 17.710938 73.597656 18.234375 73.335938 18.804688 C 72.601562 20.332031 72.347656 21.933594 72.585938 23.609375 C 72.679688 24.691406 72.988281 25.707031 73.515625 26.660156 C 74.039062 27.613281 74.730469 28.417969 75.59375 29.078125 C 75.90625 29.324219 76.238281 29.539062 76.589844 29.726562 C 76.941406 29.910156 77.304688 30.0625 77.6875 30.183594 C 78.066406 30.300781 78.453125 30.382812 78.847656 30.433594 C 79.238281 30.480469 79.636719 30.492188 80.03125 30.46875 C 80.429688 30.445312 80.820312 30.386719 81.207031 30.292969 C 81.589844 30.195312 81.964844 30.066406 82.328125 29.90625 C 82.691406 29.742188 83.035156 29.546875 83.359375 29.320312 C 83.6875 29.097656 83.992188 28.84375 84.269531 28.5625 C 84.433594 28.398438 84.585938 28.226562 84.800781 27.996094 L 84.800781 30.335938 L 87.972656 30.335938 C 87.972656 30.335938 87.992188 25.027344 87.972656 22.609375 M 82.601562 26.652344 C 82.351562 26.800781 82.089844 26.929688 81.816406 27.03125 C 81.539062 27.128906 81.257812 27.203125 80.96875 27.25 C 80.679688 27.292969 80.390625 27.3125 80.097656 27.300781 C 79.804688 27.289062 79.515625 27.25 79.230469 27.183594 C 78.949219 27.117188 78.671875 27.023438 78.40625 26.898438 C 78.140625 26.777344 77.886719 26.632812 77.652344 26.464844 C 77.414062 26.292969 77.195312 26.101562 76.996094 25.886719 C 76.792969 25.675781 76.617188 25.445312 76.460938 25.195312 C 76.191406 24.746094 75.996094 24.265625 75.871094 23.753906 C 75.75 23.246094 75.703125 22.730469 75.734375 22.207031 C 75.769531 21.683594 75.878906 21.175781 76.066406 20.683594 C 76.25 20.195312 76.507812 19.742188 76.828125 19.328125 C 77.269531 18.777344 77.8125 18.367188 78.460938 18.089844 C 79.105469 17.816406 79.78125 17.710938 80.480469 17.777344 C 81.035156 17.789062 81.566406 17.902344 82.078125 18.113281 C 82.585938 18.324219 83.042969 18.621094 83.4375 19.007812 C 83.835938 19.390625 84.148438 19.832031 84.375 20.335938 C 84.605469 20.839844 84.730469 21.367188 84.757812 21.917969 C 84.777344 22.105469 84.789062 22.296875 84.804688 22.515625 C 84.828125 23.351562 84.644531 24.136719 84.253906 24.875 C 83.859375 25.613281 83.308594 26.203125 82.597656 26.652344 " fill-opacity="1" fill-rule="nonzero"/></g><g clip-path="url(#b57144bdd2)"><path fill="#cc0a19" d="M 68.792969 25.523438 C 68.445312 25.964844 68.027344 26.332031 67.542969 26.625 C 67.058594 26.917969 66.542969 27.117188 65.984375 27.222656 C 65.429688 27.328125 64.875 27.335938 64.316406 27.242188 C 63.761719 27.148438 63.238281 26.960938 62.746094 26.679688 C 62.382812 26.464844 62.050781 26.207031 61.757812 25.902344 C 61.464844 25.59375 61.214844 25.253906 61.015625 24.882812 C 60.820312 24.507812 60.675781 24.113281 60.585938 23.699219 C 60.496094 23.285156 60.464844 22.867188 60.492188 22.445312 C 60.480469 21.796875 60.59375 21.175781 60.84375 20.578125 C 61.089844 19.980469 61.445312 19.457031 61.914062 19.007812 C 62.425781 18.515625 63.019531 18.164062 63.699219 17.953125 C 64.382812 17.742188 65.070312 17.695312 65.773438 17.816406 C 66.359375 17.863281 66.914062 18.027344 67.429688 18.308594 C 67.945312 18.59375 68.382812 18.96875 68.738281 19.4375 L 71.785156 18.1875 C 71.1875 17.167969 70.382812 16.355469 69.367188 15.746094 C 68.5625 15.253906 67.695312 14.917969 66.769531 14.730469 C 65.84375 14.546875 64.917969 14.523438 63.984375 14.664062 C 62.828125 14.78125 61.765625 15.152344 60.789062 15.777344 C 59.816406 16.40625 59.035156 17.21875 58.449219 18.214844 C 57.960938 19.035156 57.621094 19.914062 57.4375 20.847656 C 57.253906 21.785156 57.230469 22.722656 57.371094 23.667969 C 57.480469 24.839844 57.847656 25.929688 58.472656 26.929688 C 59.101562 27.929688 59.917969 28.734375 60.925781 29.347656 C 62.523438 30.324219 64.246094 30.679688 66.097656 30.410156 C 67.292969 30.320312 68.398438 29.953125 69.410156 29.3125 C 70.421875 28.667969 71.222656 27.824219 71.8125 26.785156 Z M 68.792969 25.523438 " fill-opacity="1" fill-rule="nonzero"/></g><g clip-path="url(#60dc2681b1)"><path fill="#004969" d="M 33.539062 19.210938 L 27.324219 8.207031 L 24.691406 12.636719 L 17.382812 0.0195312 L 8.761719 15.03125 L 0.195312 30.382812 L 18.136719 30.382812 L 23.542969 20.5625 L 23.980469 19.75 L 22.382812 16.816406 L 16.441406 27.652344 L 5.039062 27.652344 L 11.25 16.496094 L 17.402344 5.753906 L 31.328125 30.382812 L 39.6875 30.382812 Z M 26.261719 15.605469 L 27.25 13.949219 L 31.035156 20.652344 L 34.878906 27.652344 L 33.003906 27.652344 Z M 26.261719 15.605469 " fill-opacity="1" fill-rule="nonzero"/></g></svg>