<svg xmlns="http://www.w3.org/2000/svg" xmlns:xlink="http://www.w3.org/1999/xlink" width="118" zoomAndPan="magnify" viewBox="0 0 88.5 30.750001" height="41" preserveAspectRatio="xMidYMid meet" version="1.0"><defs><clipPath id="7de596eff6"><path d="M 40 8 L 56 8 L 56 30.503906 L 40 30.503906 Z M 40 8 " clip-rule="nonzero"/></clipPath><clipPath id="d224ae895d"><path d="M 72 14 L 87.894531 14 L 87.894531 30.503906 L 72 30.503906 Z M 72 14 " clip-rule="nonzero"/></clipPath><clipPath id="b26028f73e"><path d="M 57 14 L 72 14 L 72 30.503906 L 57 30.503906 Z M 57 14 " clip-rule="nonzero"/></clipPath><clipPath id="5a7653517d"><path d="M 0.28125 0.167969 L 40 0.167969 L 40 30.503906 L 0.28125 30.503906 Z M 0.28125 0.167969 " clip-rule="nonzero"/></clipPath></defs><g clip-path="url(#7de596eff6)"><path fill="#ffffff" d="M 52.660156 8.964844 L 52.660156 17.0625 L 52.457031 16.839844 C 51.789062 16.089844 50.988281 15.535156 50.054688 15.171875 C 49.652344 15.023438 49.246094 14.914062 48.824219 14.839844 C 48.40625 14.765625 47.984375 14.734375 47.558594 14.738281 C 47.132812 14.742188 46.710938 14.78125 46.292969 14.863281 C 45.875 14.945312 45.46875 15.0625 45.070312 15.214844 C 44.675781 15.371094 44.296875 15.558594 43.933594 15.785156 C 43.570312 16.007812 43.234375 16.261719 42.917969 16.546875 C 42.601562 16.832031 42.3125 17.144531 42.054688 17.480469 C 41.796875 17.816406 41.570312 18.175781 41.375 18.554688 C 40.5 20.296875 40.214844 22.132812 40.523438 24.058594 C 40.628906 24.9375 40.882812 25.773438 41.289062 26.558594 C 41.691406 27.347656 42.222656 28.042969 42.875 28.640625 C 43.746094 29.441406 44.75 30.003906 45.886719 30.335938 C 47.023438 30.667969 48.171875 30.734375 49.339844 30.53125 C 50.367188 30.417969 51.324219 30.097656 52.210938 29.566406 C 53.097656 29.035156 53.832031 28.339844 54.417969 27.488281 C 55.425781 26.007812 55.902344 24.367188 55.851562 22.578125 C 55.851562 18.132812 55.851562 12.152344 55.851562 12.152344 Z M 51.609375 25.863281 C 51.191406 26.390625 50.675781 26.792969 50.0625 27.074219 C 49.449219 27.351562 48.804688 27.472656 48.132812 27.441406 C 47.589844 27.453125 47.0625 27.367188 46.554688 27.183594 C 46.042969 26.996094 45.585938 26.726562 45.175781 26.371094 C 44.765625 26.015625 44.433594 25.597656 44.183594 25.117188 C 43.929688 24.640625 43.769531 24.128906 43.707031 23.589844 C 43.546875 22.78125 43.585938 21.980469 43.828125 21.191406 C 44.070312 20.402344 44.484375 19.714844 45.074219 19.132812 C 45.328125 18.890625 45.609375 18.683594 45.917969 18.503906 C 46.222656 18.328125 46.546875 18.191406 46.886719 18.09375 C 47.226562 17.992188 47.570312 17.933594 47.925781 17.917969 C 48.277344 17.898438 48.628906 17.921875 48.976562 17.988281 C 49.320312 18.054688 49.65625 18.160156 49.980469 18.308594 C 50.300781 18.453125 50.601562 18.632812 50.882812 18.851562 C 51.160156 19.066406 51.410156 19.3125 51.628906 19.589844 C 51.851562 19.867188 52.035156 20.164062 52.183594 20.484375 C 52.394531 20.914062 52.539062 21.367188 52.621094 21.835938 C 52.703125 22.308594 52.71875 22.78125 52.667969 23.253906 C 52.617188 23.730469 52.503906 24.191406 52.320312 24.632812 C 52.140625 25.074219 51.902344 25.484375 51.609375 25.859375 " fill-opacity="1" fill-rule="nonzero"/></g><g clip-path="url(#d224ae895d)"><path fill="#ffffff" d="M 87.886719 22.753906 C 87.886719 22.121094 87.824219 21.492188 87.707031 20.871094 C 87.53125 19.792969 87.128906 18.804688 86.503906 17.90625 C 85.878906 17.011719 85.089844 16.292969 84.140625 15.753906 C 82.570312 14.855469 80.898438 14.542969 79.113281 14.8125 C 78.488281 14.871094 77.882812 15.011719 77.292969 15.230469 C 76.703125 15.449219 76.15625 15.742188 75.644531 16.105469 C 75.132812 16.46875 74.675781 16.890625 74.273438 17.375 C 73.871094 17.859375 73.539062 18.382812 73.277344 18.953125 C 72.542969 20.480469 72.292969 22.082031 72.527344 23.757812 C 72.625 24.839844 72.933594 25.855469 73.457031 26.808594 C 73.976562 27.761719 74.671875 28.566406 75.53125 29.226562 C 75.84375 29.472656 76.175781 29.6875 76.527344 29.875 C 76.875 30.058594 77.242188 30.210938 77.617188 30.332031 C 77.996094 30.449219 78.382812 30.53125 78.777344 30.582031 C 79.171875 30.628906 79.566406 30.640625 79.960938 30.617188 C 80.355469 30.59375 80.746094 30.535156 81.132812 30.441406 C 81.515625 30.34375 81.890625 30.214844 82.25 30.054688 C 82.613281 29.890625 82.957031 29.695312 83.28125 29.46875 C 83.609375 29.246094 83.910156 28.992188 84.191406 28.710938 C 84.351562 28.546875 84.503906 28.375 84.71875 28.144531 L 84.71875 30.484375 L 87.886719 30.484375 C 87.886719 30.484375 87.90625 25.175781 87.886719 22.757812 M 82.523438 26.800781 C 82.273438 26.953125 82.015625 27.078125 81.738281 27.179688 C 81.464844 27.277344 81.183594 27.351562 80.894531 27.398438 C 80.609375 27.445312 80.316406 27.460938 80.027344 27.449219 C 79.734375 27.4375 79.445312 27.398438 79.164062 27.332031 C 78.878906 27.265625 78.605469 27.171875 78.339844 27.050781 C 78.074219 26.929688 77.820312 26.78125 77.585938 26.613281 C 77.347656 26.441406 77.128906 26.25 76.929688 26.035156 C 76.730469 25.824219 76.550781 25.59375 76.398438 25.34375 C 76.128906 24.894531 75.933594 24.414062 75.808594 23.90625 C 75.6875 23.394531 75.640625 22.878906 75.671875 22.355469 C 75.707031 21.832031 75.816406 21.324219 76 20.832031 C 76.1875 20.34375 76.441406 19.890625 76.765625 19.476562 C 77.203125 18.925781 77.746094 18.515625 78.390625 18.242188 C 79.039062 17.964844 79.710938 17.863281 80.410156 17.929688 C 80.960938 17.9375 81.492188 18.050781 82 18.261719 C 82.511719 18.472656 82.964844 18.769531 83.359375 19.15625 C 83.757812 19.539062 84.066406 19.984375 84.296875 20.484375 C 84.523438 20.988281 84.652344 21.515625 84.679688 22.066406 C 84.695312 22.253906 84.707031 22.445312 84.722656 22.664062 C 84.75 23.5 84.566406 24.285156 84.171875 25.023438 C 83.78125 25.761719 83.230469 26.355469 82.523438 26.800781 " fill-opacity="1" fill-rule="nonzero"/></g><g clip-path="url(#b26028f73e)"><path fill="#ffffff" d="M 68.746094 25.671875 C 68.394531 26.113281 67.980469 26.480469 67.496094 26.773438 C 67.015625 27.066406 66.496094 27.265625 65.941406 27.371094 C 65.390625 27.476562 64.832031 27.484375 64.277344 27.390625 C 63.722656 27.296875 63.199219 27.109375 62.710938 26.828125 C 62.34375 26.617188 62.015625 26.355469 61.722656 26.050781 C 61.429688 25.746094 61.183594 25.40625 60.984375 25.03125 C 60.785156 24.65625 60.640625 24.261719 60.550781 23.847656 C 60.464844 23.433594 60.433594 23.015625 60.460938 22.59375 C 60.445312 21.945312 60.5625 21.324219 60.808594 20.726562 C 61.054688 20.128906 61.414062 19.605469 61.878906 19.15625 C 62.390625 18.664062 62.984375 18.3125 63.660156 18.101562 C 64.339844 17.890625 65.03125 17.84375 65.730469 17.964844 C 66.316406 18.011719 66.867188 18.175781 67.382812 18.457031 C 67.898438 18.742188 68.332031 19.117188 68.6875 19.585938 L 71.730469 18.335938 C 71.132812 17.316406 70.328125 16.503906 69.316406 15.894531 C 68.511719 15.402344 67.648438 15.066406 66.726562 14.878906 C 65.800781 14.695312 64.875 14.671875 63.945312 14.8125 C 62.792969 14.929688 61.730469 15.300781 60.757812 15.925781 C 59.785156 16.554688 59.003906 17.367188 58.421875 18.363281 C 57.933594 19.183594 57.59375 20.0625 57.410156 20.996094 C 57.226562 21.933594 57.203125 22.871094 57.347656 23.816406 C 57.453125 24.988281 57.820312 26.078125 58.445312 27.078125 C 59.070312 28.078125 59.886719 28.882812 60.894531 29.496094 C 62.484375 30.472656 64.203125 30.828125 66.054688 30.558594 C 67.246094 30.46875 68.351562 30.101562 69.359375 29.460938 C 70.371094 28.816406 71.171875 27.976562 71.757812 26.933594 Z M 68.746094 25.671875 " fill-opacity="1" fill-rule="nonzero"/></g><g clip-path="url(#5a7653517d)"><path fill="#ffffff" d="M 33.558594 19.359375 L 27.355469 8.355469 L 24.730469 12.785156 L 17.433594 0.167969 L 8.832031 15.179688 L 0.28125 30.53125 L 18.1875 30.53125 L 23.582031 20.714844 L 24.019531 19.898438 L 22.425781 16.964844 L 16.496094 27.800781 L 5.117188 27.800781 L 11.3125 16.644531 L 17.457031 5.902344 L 31.351562 30.53125 L 39.695312 30.53125 Z M 26.296875 15.753906 L 27.285156 14.097656 L 31.0625 20.804688 L 34.898438 27.800781 L 33.027344 27.800781 Z M 26.296875 15.753906 " fill-opacity="1" fill-rule="nonzero"/></g></svg>